Coordinates
version=1
nRows=19
nColumns=24
inDegrees=yes

Units are S.I. units (second, meters, Newtons, ...)
Angles are in degrees.

endheader
time	pelvis_tilt	pelvis_list	pelvis_rotation	pelvis_tx	pelvis_ty	pelvis_tz	hip_flexion_r	hip_adduction_r	hip_rotation_r	knee_angle_r	ankle_angle_r	subtalar_angle_r	mtp_angle_r	hip_flexion_l	hip_adduction_l	hip_rotation_l	knee_angle_l	ankle_angle_l	subtalar_angle_l	mtp_angle_l	lumbar_extension	lumbar_bending	lumbar_rotation
      0.70400000	     -1.37205732	      3.26608616	      9.67083755	     -0.08206963	      0.99287423	      0.27431999	     29.25466950	     -4.33840317	     -6.82174973	     -1.60581479	      9.36274037	     -4.06570238	      7.04541425	    -14.70809446	      6.06729994	     11.69110355	    -14.26844301	     16.19295305	     -3.52540019	     -1.08015505	     -8.34792046	     -4.94975033	     -7.86887514
      0.70816667	     -1.38155257	      3.17781477	      9.77598893	     -0.07620118	      0.99224622	      0.27441373	     29.30475498	     -4.26016139	     -6.62595520	     -2.22259360	      9.41659219	     -4.46348321	      7.06014419	    -14.92106844	      5.88010421	     11.67651535	    -14.47365935	     16.04493651	     -3.43721694	     -1.07039913	     -8.22890958	     -4.80272131	     -7.93748871
      0.71233333	     -1.43801481	      3.06321690	      9.87071050	     -0.07026160	      0.99157215	      0.27457141	     29.37318331	     -4.13994122	     -6.30454469	     -2.77110690	      9.22834518	     -5.18156780	      7.09750023	    -15.07589783	      5.67127089	     11.64468768	    -14.68766755	     15.91638966	     -3.27686367	     -1.02092720	     -8.07637871	     -4.66908170	     -8.06198917
      0.71650000	     -1.44973519	      2.94416252	      9.97281587	     -0.06428673	      0.99099638	      0.27471687	     29.38664189	     -4.01198357	     -6.07011027	     -3.31776201	      9.01138442	     -5.86390261	      7.15509861	    -15.26906601	      5.44644227	     11.60371300	    -14.91702005	     15.75671601	     -3.13823200	     -0.94043903	     -7.96239062	     -4.50490631	     -8.13304012
      0.72066667	     -1.45933024	      2.81960100	     10.06964272	     -0.05827720	      0.99044125	      0.27487905	     29.39310459	     -3.87190729	     -5.85659198	     -3.85782124	      8.73838888	     -6.55731054	      7.23138847	    -15.45421601	      5.21623443	     11.54900094	    -15.16354927	     15.57434060	     -3.00496008	     -0.83002307	     -7.84470103	     -4.34069068	     -8.19901024
      0.72483333	     -1.47709579	      2.68480754	     10.16397031	     -0.05221061	      0.98990936	      0.27504975	     29.39754147	     -3.71708035	     -5.66292312	     -4.37622883	      8.38193455	     -7.29444585	      7.32520255	    -15.62371592	      4.97684375	     11.48789975	    -15.41954035	     15.36624670	     -2.87278115	     -0.69010820	     -7.70566303	     -4.16069841	     -8.26114635
      0.72900000	     -1.47576505	      2.55913723	     10.25851028	     -0.04614760	      0.98943073	      0.27525600	     29.37063431	     -3.56049649	     -5.46065529	     -4.86968304	      7.94448821	     -8.12514667	      7.46695010	    -15.79150990	      4.74135163	     11.40490862	    -15.71948554	     15.16802347	     -2.73846572	     -0.47625511	     -7.60553732	     -4.00396000	     -8.31460577
      0.73316667	     -1.49170207	      2.41045815	     10.34266470	     -0.04000378	      0.98896221	      0.27547525	     29.35709311	     -3.37626818	     -5.29264746	     -5.34882132	      7.45340201	     -8.92460709	      7.63825669	    -15.93936682	      4.48652936	     11.31640952	    -16.01124189	     14.91147738	     -2.59656983	     -0.21260375	     -7.46132334	     -3.81576844	     -8.35907557
      0.73733333	     -1.50119586	      2.25107519	     10.42283475	     -0.03382505	      0.98853432	      0.27569414	     29.33008344	     -3.17685225	     -5.15243935	     -5.80661846	      6.87950780	     -9.72917689	      7.82330751	    -16.08182997	      4.22167649	     11.21645927	    -16.32135615	     14.63323954	     -2.47099710	      0.07968549	     -7.31486385	     -3.60861667	     -8.40570615
      0.74150000	     -1.50929958	      2.08181725	     10.49449199	     -0.02761054	      0.98814228	      0.27594121	     29.29742078	     -2.95971703	     -5.02779681	     -6.24854036	      6.24763118	    -10.53121925	      8.02117050	    -16.21259645	      3.94682762	     11.09830971	    -16.64926023	     14.32530751	     -2.33930785	      0.40247309	     -7.16327819	     -3.39033844	     -8.43507539
      0.74566667	     -1.51088697	      1.90908674	     10.55447684	     -0.02136917	      0.98779059	      0.27622122	     29.26734173	     -2.73564792	     -4.97682938	     -6.69836696	      5.53927961	    -11.22475606	     10.06112557	    -16.33171210	      3.66201874	     10.91228648	    -16.99511928	     13.92786021	     -2.13177084	      3.69193876	     -7.02214788	     -3.17909343	     -8.40920018
      0.74983333	     -1.53825339	      1.72116472	     10.61641038	     -0.01508511	      0.98745078	      0.27648128	     29.25189407	     -2.49525832	     -4.88740738	     -7.12632395	      4.84148135	    -11.99082160	     10.07256907	    -16.42000860	      3.38209951	     10.82206605	    -17.35396182	     13.52647912	     -2.12169041	      3.75385921	     -6.83356376	     -2.93379862	     -8.47588250
      0.75400000	     -1.55040634	      1.52558187	     10.66475443	     -0.00879064	      0.98716938	      0.27679480	     29.21879170	     -2.23485441	     -4.80559586	     -7.53935260	      4.08613259	    -12.73304627	     10.11136702	    -16.49956976	      3.08689676	     10.66099408	    -17.74941928	     13.13860465	     -1.99262078	      3.87469442	     -6.66481852	     -2.69048734	     -8.47801497
      0.75816667	     -1.54758657	      1.32031766	     10.70056878	     -0.00247757	      0.98694353	      0.27712924	     29.17449066	     -1.95687272	     -4.74436596	     -7.95695695	      3.31862126	    -13.42161427	     10.17645709	    -16.57843587	      2.78119323	     10.47023571	    -18.16621728	     12.70885491	     -1.85485068	      4.05741672	     -6.51326859	     -2.43196197	     -8.47071229
      0.76233333	     -1.55831970	      1.10965298	     10.72700582	      0.00385282	      0.98674351	      0.27749143	     29.14874455	     -1.67023034	     -4.68285795	     -8.38134773	      2.54610446	    -14.07661579	     10.26908720	    -16.62323847	      2.47481203	     10.26263855	    -18.61173837	     12.24486580	     -1.71856090	      4.31024129	     -6.34340083	     -2.17450939	     -8.45767097
      0.76650000	     -1.57114555	      0.89062371	     10.74238255	      0.01019168	      0.98658533	      0.27786725	     29.13370499	     -1.37242708	     -4.63837915	     -8.82179357	      1.78657319	    -14.66865306	     10.38636889	    -16.64506558	      2.16441490	     10.03319992	    -19.08681396	     11.74397168	     -1.58579077	      4.63528696	     -6.16507698	     -1.90372918	     -8.43208465
      0.77066667	     -1.56562764	      0.65813749	     10.74336251	      0.01654681	      0.98649208	      0.27827343	     29.10520162	     -1.05182880	     -4.60160245	     -9.27330250	      1.05282360	    -15.20503427	     10.52537256	    -16.66886578	      1.83885742	      9.77622795	    -19.58292741	     11.20646021	     -1.45308259	      5.03733098	     -6.00694395	     -1.61170648	     -8.39078062
      0.77483333	     -1.51779142	      0.41963206	     10.72850233	      0.02291941	      0.98650352	      0.27870254	     29.05050364	     -0.72049030	     -4.64166234	     -9.76735613	      0.39755508	    -15.55057770	     11.91967617	    -16.72764216	      1.49627937	      9.47194815	    -20.07229044	     10.52266671	     -1.29517575	      9.11655256	     -5.90397043	     -1.30356179	     -8.35089201
      0.77900000	     -1.57616862	      0.18890021	     10.70426939	      0.02927231	      0.98641098	      0.27914775	     29.11844732	     -0.40761557	     -4.60260062	    -10.29218314	     -0.20159332	    -15.91096283	     11.91742988	    -16.63851455	      1.19944643	      9.20897323	    -20.64108720	      9.88457414	     -1.25998185	      9.19369302	     -5.66558856	     -1.02869504	     -8.30207878
